[
{ "note": 74 , "start": 0.140625, "duration": 0.140625, "velocity": 127 },
{ "note": 76 , "start": 0.28125, "duration": 0.145833, "velocity": 127 },
{ "note": 77 , "start": 0.427083, "duration": 0.140625, "velocity": 127 },
{ "note": 79 , "start": 0.572917, "duration": 0.140625, "velocity": 127 },
{ "note": 81 , "start": 0.713542, "duration": 0.28125, "velocity": 127 },
{ "note": 69 , "start": 0.859375, "duration": 0.140625, "velocity": 127 },
{ "note": 73 , "start": 1, "duration": 0.161458, "velocity": 127 },
{ "note": 69 , "start": 1.14062, "duration": 0.140625, "velocity": 127 },
{ "note": 62 , "start": 1.28646, "duration": 0.140625, "velocity": 127 },
{ "note": 74 , "start": 1.28646, "duration": 0.854167, "velocity": 127 },
{ "note": 64 , "start": 1.42708, "duration": 0.145833, "velocity": 127 },
{ "note": 65 , "start": 1.57292, "duration": 0.140625, "velocity": 127 },
{ "note": 67 , "start": 1.71354, "duration": 0.145833, "velocity": 127 },
{ "note": 69 , "start": 1.85938, "duration": 0.161458, "velocity": 127 },
{ "note": 57 , "start": 2, "duration": 0.145833, "velocity": 127 },
{ "note": 61 , "start": 2.14583, "duration": 0.161458, "velocity": 127 },
{ "note": 76 , "start": 2.14583, "duration": 0.286458, "velocity": 127 },
{ "note": 57 , "start": 2.28646, "duration": 0.140625, "velocity": 127 },
{ "note": 77 , "start": 2.43229, "duration": 0.140625, "velocity": 127 },
{ "note": 62 , "start": 2.43229, "duration": 0.28125, "velocity": 127 },
{ "note": 74 , "start": 2.57292, "duration": 0.140625, "velocity": 127 },
{ "note": 64 , "start": 2.71875, "duration": 0.28125, "velocity": 127 },
{ "note": 79 , "start": 2.71875, "duration": 0.140625, "velocity": 127 },
{ "note": 76 , "start": 2.85938, "duration": 0.140625, "velocity": 127 },
{ "note": 65 , "start": 3.00521, "duration": 0.28125, "velocity": 127 },
{ "note": 81 , "start": 3.00521, "duration": 0.140625, "velocity": 127 },
{ "note": 77 , "start": 3.14583, "duration": 0.145833, "velocity": 127 },
{ "note": 67 , "start": 3.29167, "duration": 0.286458, "velocity": 127 },
{ "note": 76 , "start": 3.29167, "duration": 0.140625, "velocity": 127 },
{ "note": 74 , "start": 3.43229, "duration": 0.145833, "velocity": 127 },
{ "note": 69 , "start": 3.57812, "duration": 0.28125, "velocity": 127 },
{ "note": 73 , "start": 3.57812, "duration": 0.28125, "velocity": 127 },
{ "note": 69 , "start": 3.85938, "duration": 0.286458, "velocity": 127 },
{ "note": 81 , "start": 3.85938, "duration": 0.286458, "velocity": 127 },
{ "note": 82 , "start": 4.14583, "duration": 0.0729167, "velocity": 127 },
{ "note": 69 , "start": 4.14583, "duration": 0.286458, "velocity": 127 },
{ "note": 81 , "start": 4.21875, "duration": 0.0677083, "velocity": 127 },
{ "note": 82 , "start": 4.29167, "duration": 0.0677083, "velocity": 127 },
{ "note": 81 , "start": 4.35938, "duration": 0.0729167, "velocity": 127 },
{ "note": 82 , "start": 4.43229, "duration": 0.0729167, "velocity": 127 },
{ "note": 69 , "start": 4.43229, "duration": 0.286458, "velocity": 127 },
{ "note": 81 , "start": 4.50521, "duration": 0.0677083, "velocity": 127 },
{ "note": 82 , "start": 4.57812, "duration": 0.0677083, "velocity": 127 },
{ "note": 81 , "start": 4.64583, "duration": 0.213542, "velocity": 127 },
{ "note": 69 , "start": 4.71875, "duration": 0.286458, "velocity": 127 },
{ "note": 65 , "start": 4.71875, "duration": 0.286458, "velocity": 127 },
{ "note": 79 , "start": 4.86458, "duration": 0.140625, "velocity": 127 },
{ "note": 65 , "start": 5.00521, "duration": 0.286458, "velocity": 127 },
{ "note": 69 , "start": 5.00521, "duration": 0.286458, "velocity": 127 },
{ "note": 77 , "start": 5.00521, "duration": 0.140625, "velocity": 127 },
{ "note": 76 , "start": 5.15104, "duration": 0.140625, "velocity": 127 },
{ "note": 74 , "start": 5.29167, "duration": 0.140625, "velocity": 127 },
{ "note": 69 , "start": 5.29167, "duration": 0.286458, "velocity": 127 },
{ "note": 65 , "start": 5.29167, "duration": 0.286458, "velocity": 127 },
{ "note": 72 , "start": 5.4375, "duration": 0.140625, "velocity": 127 },
{ "note": 65 , "start": 5.57812, "duration": 0.286458, "velocity": 127 },
{ "note": 70 , "start": 5.57812, "duration": 0.140625, "velocity": 127 },
{ "note": 69 , "start": 5.72396, "duration": 0.140625, "velocity": 127 },
{ "note": 70 , "start": 5.86458, "duration": 0.286458, "velocity": 127 },
{ "note": 55 , "start": 5.86458, "duration": 0.286458, "velocity": 127 },
{ "note": 79 , "start": 6.15104, "duration": 0.286458, "velocity": 127 },
{ "note": 70 , "start": 6.15104, "duration": 0.286458, "velocity": 127 },
{ "note": 67 , "start": 6.15104, "duration": 0.286458, "velocity": 127 },
{ "note": 70 , "start": 6.4375, "duration": 0.28125, "velocity": 127 },
{ "note": 67 , "start": 6.4375, "duration": 0.28125, "velocity": 127 },
{ "note": 81 , "start": 6.4375, "duration": 0.0677083, "velocity": 127 },
{ "note": 79 , "start": 6.51042, "duration": 0.0677083, "velocity": 127 },
{ "note": 81 , "start": 6.57812, "duration": 0.0729167, "velocity": 127 },
{ "note": 79 , "start": 6.65104, "duration": 0.0729167, "velocity": 127 },
{ "note": 67 , "start": 6.72396, "duration": 0.28125, "velocity": 127 },
{ "note": 70 , "start": 6.72396, "duration": 0.28125, "velocity": 127 },
{ "note": 81 , "start": 6.72396, "duration": 0.0677083, "velocity": 127 },
{ "note": 79 , "start": 6.79688, "duration": 0.0677083, "velocity": 127 },
{ "note": 81 , "start": 6.86458, "duration": 0.0729167, "velocity": 127 },
{ "note": 79 , "start": 6.9375, "duration": 0.213542, "velocity": 127 },
{ "note": 67 , "start": 7.01042, "duration": 0.286458, "velocity": 127 },
{ "note": 64 , "start": 7.01042, "duration": 0.286458, "velocity": 127 },
{ "note": 77 , "start": 7.15104, "duration": 0.145833, "velocity": 127 },
{ "note": 67 , "start": 7.29688, "duration": 0.286458, "velocity": 127 },
{ "note": 64 , "start": 7.29688, "duration": 0.286458, "velocity": 127 },
{ "note": 76 , "start": 7.29688, "duration": 0.140625, "velocity": 127 },
{ "note": 74 , "start": 7.4375, "duration": 0.145833, "velocity": 127 },
{ "note": 64 , "start": 7.58333, "duration": 0.286458, "velocity": 127 },
{ "note": 72 , "start": 7.58333, "duration": 0.140625, "velocity": 127 },
{ "note": 67 , "start": 7.58333, "duration": 0.286458, "velocity": 127 },
{ "note": 70 , "start": 7.72396, "duration": 0.140625, "velocity": 127 },
{ "note": 69 , "start": 7.86979, "duration": 0.140625, "velocity": 127 },
{ "note": 64 , "start": 7.86979, "duration": 0.28125, "velocity": 127 },
{ "note": 67 , "start": 8.01042, "duration": 0.140625, "velocity": 127 },
{ "note": 53 , "start": 8.15625, "duration": 0.28125, "velocity": 127 },
{ "note": 69 , "start": 8.15625, "duration": 0.28125, "velocity": 127 },
{ "note": 65 , "start": 8.44271, "duration": 0.28125, "velocity": 127 },
{ "note": 69 , "start": 8.44271, "duration": 0.28125, "velocity": 127 },
{ "note": 77 , "start": 8.44271, "duration": 0.28125, "velocity": 127 },
{ "note": 79 , "start": 8.72396, "duration": 0.0729167, "velocity": 127 },
{ "note": 65 , "start": 8.72396, "duration": 0.286458, "velocity": 127 },
{ "note": 69 , "start": 8.72396, "duration": 0.286458, "velocity": 127 },
{ "note": 77 , "start": 8.79688, "duration": 0.0729167, "velocity": 127 },
{ "note": 79 , "start": 8.86979, "duration": 0.0677083, "velocity": 127 },
{ "note": 77 , "start": 8.94271, "duration": 0.0677083, "velocity": 127 },
{ "note": 79 , "start": 9.01042, "duration": 0.0729167, "velocity": 127 },
{ "note": 69 , "start": 9.01042, "duration": 0.286458, "velocity": 127 },
{ "note": 65 , "start": 9.01042, "duration": 0.286458, "velocity": 127 },
{ "note": 77 , "start": 9.08333, "duration": 0.0729167, "velocity": 127 },
{ "note": 79 , "start": 9.15625, "duration": 0.0677083, "velocity": 127 },
{ "note": 77 , "start": 9.22917, "duration": 0.213542, "velocity": 127 },
{ "note": 62 , "start": 9.29688, "duration": 0.286458, "velocity": 127 },
{ "note": 65 , "start": 9.29688, "duration": 0.286458, "velocity": 127 },
{ "note": 76 , "start": 9.44271, "duration": 0.140625, "velocity": 127 },
{ "note": 62 , "start": 9.58333, "duration": 0.286458, "velocity": 127 },
{ "note": 65 , "start": 9.58333, "duration": 0.286458, "velocity": 127 },
{ "note": 74 , "start": 9.58333, "duration": 0.145833, "velocity": 127 },
{ "note": 72 , "start": 9.72917, "duration": 0.140625, "velocity": 127 },
{ "note": 65 , "start": 9.86979, "duration": 0.286458, "velocity": 127 },
{ "note": 70 , "start": 9.86979, "duration": 0.145833, "velocity": 127 },
{ "note": 62 , "start": 9.86979, "duration": 0.286458, "velocity": 127 },
{ "note": 69 , "start": 10.0156, "duration": 0.140625, "velocity": 127 },
{ "note": 62 , "start": 10.1562, "duration": 0.286458, "velocity": 127 },
{ "note": 67 , "start": 10.1562, "duration": 0.145833, "velocity": 127 },
{ "note": 65 , "start": 10.3021, "duration": 0.140625, "velocity": 127 },
{ "note": 67 , "start": 10.4427, "duration": 0.286458, "velocity": 127 },
{ "note": 52 , "start": 10.4427, "duration": 0.286458, "velocity": 127 },
{ "note": 64 , "start": 10.7292, "duration": 0.286458, "velocity": 127 },
{ "note": 67 , "start": 10.7292, "duration": 0.286458, "velocity": 127 },
{ "note": 76 , "start": 10.7292, "duration": 0.286458, "velocity": 127 },
{ "note": 77 , "start": 11.0156, "duration": 0.0677083, "velocity": 127 },
{ "note": 64 , "start": 11.0156, "duration": 0.28125, "velocity": 127 },
{ "note": 67 , "start": 11.0156, "duration": 0.28125, "velocity": 127 },
{ "note": 76 , "start": 11.0833, "duration": 0.0729167, "velocity": 127 },
{ "note": 77 , "start": 11.1562, "duration": 0.0729167, "velocity": 127 },
{ "note": 76 , "start": 11.2292, "duration": 0.0729167, "velocity": 127 },
{ "note": 67 , "start": 11.3021, "duration": 0.286458, "velocity": 127 },
{ "note": 64 , "start": 11.3021, "duration": 0.286458, "velocity": 127 },
{ "note": 77 , "start": 11.3021, "duration": 0.0677083, "velocity": 127 },
{ "note": 76 , "start": 11.375, "duration": 0.0677083, "velocity": 127 },
{ "note": 77 , "start": 11.4427, "duration": 0.0729167, "velocity": 127 },
{ "note": 76 , "start": 11.5156, "duration": 0.213542, "velocity": 127 },
{ "note": 57 , "start": 11.5885, "duration": 0.28125, "velocity": 127 },
{ "note": 64 , "start": 11.5885, "duration": 0.28125, "velocity": 127 },
{ "note": 74 , "start": 11.7292, "duration": 0.145833, "velocity": 127 },
{ "note": 64 , "start": 11.875, "duration": 0.28125, "velocity": 127 },
{ "note": 57 , "start": 11.875, "duration": 0.28125, "velocity": 127 },
{ "note": 73 , "start": 11.875, "duration": 0.140625, "velocity": 127 },
{ "note": 71 , "start": 12.0156, "duration": 0.140625, "velocity": 127 },
{ "note": 64 , "start": 12.1615, "duration": 0.286458, "velocity": 127 },
{ "note": 57 , "start": 12.1615, "duration": 0.286458, "velocity": 127 },
{ "note": 69 , "start": 12.1615, "duration": 0.140625, "velocity": 127 },
{ "note": 67 , "start": 12.3021, "duration": 0.145833, "velocity": 127 },
{ "note": 57 , "start": 12.4479, "duration": 0.28125, "velocity": 127 },
{ "note": 65 , "start": 12.4479, "duration": 0.140625, "velocity": 127 },
{ "note": 64 , "start": 12.5885, "duration": 0.140625, "velocity": 127 },
{ "note": 50 , "start": 12.7344, "duration": 0.28125, "velocity": 127 },
{ "note": 62 , "start": 12.7344, "duration": 0.140625, "velocity": 127 },
{ "note": 65 , "start": 12.7344, "duration": 0.140625, "velocity": 127 },
{ "note": 62 , "start": 12.875, "duration": 0.140625, "velocity": 127 },
{ "note": 67 , "start": 13.0156, "duration": 0.145833, "velocity": 127 },
{ "note": 52 , "start": 13.0156, "duration": 0.286458, "velocity": 127 },
{ "note": 64 , "start": 13.1615, "duration": 0.140625, "velocity": 127 },
{ "note": 53 , "start": 13.3073, "duration": 0.28125, "velocity": 127 },
{ "note": 69 , "start": 13.3073, "duration": 0.140625, "velocity": 127 },
{ "note": 65 , "start": 13.4479, "duration": 0.140625, "velocity": 127 },
{ "note": 55 , "start": 13.5938, "duration": 0.28125, "velocity": 127 },
{ "note": 64 , "start": 13.5938, "duration": 0.140625, "velocity": 127 },
{ "note": 62 , "start": 13.7344, "duration": 0.140625, "velocity": 127 },
{ "note": 57 , "start": 13.875, "duration": 0.140625, "velocity": 127 },
{ "note": 61 , "start": 13.875, "duration": 0.140625, "velocity": 127 },
{ "note": 57 , "start": 14.0208, "duration": 0.140625, "velocity": 127 },
{ "note": 59 , "start": 14.1615, "duration": 0.140625, "velocity": 127 },
{ "note": 62 , "start": 14.1615, "duration": 0.140625, "velocity": 127 },
{ "note": 59 , "start": 14.3073, "duration": 0.140625, "velocity": 127 },
{ "note": 61 , "start": 14.4479, "duration": 0.140625, "velocity": 127 },
{ "note": 64 , "start": 14.4479, "duration": 0.140625, "velocity": 127 },
{ "note": 61 , "start": 14.5885, "duration": 0.140625, "velocity": 127 },
{ "note": 62 , "start": 14.7344, "duration": 0.140625, "velocity": 127 },
{ "note": 65 , "start": 14.7344, "duration": 0.140625, "velocity": 127 },
{ "note": 62 , "start": 14.875, "duration": 0.140625, "velocity": 127 },
{ "note": 67 , "start": 15.0156, "duration": 0.140625, "velocity": 127 },
{ "note": 64 , "start": 15.0156, "duration": 0.140625, "velocity": 127 },
{ "note": 64 , "start": 15.1615, "duration": 0.140625, "velocity": 127 },
{ "note": 65 , "start": 15.3021, "duration": 0.140625, "velocity": 127 },
{ "note": 69 , "start": 15.3021, "duration": 0.140625, "velocity": 127 },
{ "note": 65 , "start": 15.4427, "duration": 0.145833, "velocity": 127 },
{ "note": 67 , "start": 15.5885, "duration": 0.140625, "velocity": 127 },
{ "note": 71 , "start": 15.5885, "duration": 0.140625, "velocity": 127 },
{ "note": 67 , "start": 15.7292, "duration": 0.145833, "velocity": 127 },
{ "note": 69 , "start": 15.875, "duration": 0.135417, "velocity": 127 },
{ "note": 73 , "start": 15.875, "duration": 0.140625, "velocity": 127 },
{ "note": 69 , "start": 16.0156, "duration": 0.140625, "velocity": 127 },
{ "note": 71 , "start": 16.1615, "duration": 0.135417, "velocity": 127 },
{ "note": 74 , "start": 16.1615, "duration": 0.140625, "velocity": 127 },
{ "note": 71 , "start": 16.3021, "duration": 0.140625, "velocity": 127 },
{ "note": 73 , "start": 16.4427, "duration": 0.140625, "velocity": 127 },
{ "note": 76 , "start": 16.4427, "duration": 0.140625, "velocity": 127 },
{ "note": 73 , "start": 16.5833, "duration": 0.145833, "velocity": 127 },
{ "note": 77 , "start": 16.7292, "duration": 0.140625, "velocity": 127 },
{ "note": 74 , "start": 16.7292, "duration": 0.140625, "velocity": 127 },
{ "note": 74 , "start": 16.8698, "duration": 0.145833, "velocity": 127 },
{ "note": 76 , "start": 17.0156, "duration": 0.135417, "velocity": 127 },
{ "note": 79 , "start": 17.0156, "duration": 0.140625, "velocity": 127 },
{ "note": 76 , "start": 17.1562, "duration": 0.140625, "velocity": 127 },
{ "note": 77 , "start": 17.3021, "duration": 0.140625, "velocity": 127 },
{ "note": 81 , "start": 17.3021, "duration": 0.640625, "velocity": 127 },
{ "note": 74 , "start": 17.4427, "duration": 0.140625, "velocity": 127 },
{ "note": 70 , "start": 17.5833, "duration": 0.145833, "velocity": 127 },
{ "note": 67 , "start": 17.7292, "duration": 0.140625, "velocity": 127 },
{ "note": 76 , "start": 17.875, "duration": 0.140625, "velocity": 127 },
{ "note": 79 , "start": 17.9427, "duration": 0.0729167, "velocity": 127 },
{ "note": 73 , "start": 18.0156, "duration": 0.140625, "velocity": 127 },
{ "note": 81 , "start": 18.0156, "duration": 0.0677083, "velocity": 127 },
{ "note": 79 , "start": 18.0885, "duration": 0.0677083, "velocity": 127 },
{ "note": 69 , "start": 18.1615, "duration": 0.140625, "velocity": 127 },
{ "note": 81 , "start": 18.1615, "duration": 0.0677083, "velocity": 127 },
{ "note": 79 , "start": 18.2292, "duration": 0.0729167, "velocity": 127 },
{ "note": 77 , "start": 18.3021, "duration": 0.0729167, "velocity": 127 },
{ "note": 73 , "start": 18.3021, "duration": 0.140625, "velocity": 127 },
{ "note": 79 , "start": 18.375, "duration": 0.0677083, "velocity": 127 },
{ "note": 77 , "start": 18.4427, "duration": 0.145833, "velocity": 127 },
{ "note": 81 , "start": 18.4427, "duration": 0.645833, "velocity": 127 },
{ "note": 74 , "start": 18.5885, "duration": 0.140625, "velocity": 127 },
{ "note": 70 , "start": 18.7344, "duration": 0.140625, "velocity": 127 },
{ "note": 67 , "start": 18.875, "duration": 0.140625, "velocity": 127 },
{ "note": 76 , "start": 19.0156, "duration": 0.145833, "velocity": 127 },
{ "note": 79 , "start": 19.0885, "duration": 0.0729167, "velocity": 127 },
{ "note": 73 , "start": 19.1615, "duration": 0.140625, "velocity": 127 },
{ "note": 81 , "start": 19.1615, "duration": 0.0729167, "velocity": 127 },
{ "note": 79 , "start": 19.2344, "duration": 0.0677083, "velocity": 127 },
{ "note": 69 , "start": 19.3073, "duration": 0.140625, "velocity": 127 },
{ "note": 81 , "start": 19.3073, "duration": 0.0677083, "velocity": 127 },
{ "note": 79 , "start": 19.375, "duration": 0.0729167, "velocity": 127 },
{ "note": 73 , "start": 19.4479, "duration": 0.140625, "velocity": 127 },
{ "note": 81 , "start": 19.4479, "duration": 0.0677083, "velocity": 127 },
{ "note": 79 , "start": 19.5208, "duration": 0.0677083, "velocity": 127 },
{ "note": 77 , "start": 19.5938, "duration": 0.140625, "velocity": 127 },
{ "note": 79 , "start": 19.6615, "duration": 0.0729167, "velocity": 127 },
{ "note": 81 , "start": 19.7344, "duration": 0.5, "velocity": 127 },
{ "note": 74 , "start": 19.7344, "duration": 0.140625, "velocity": 127 },
{ "note": 70 , "start": 19.875, "duration": 0.145833, "velocity": 127 },
{ "note": 67 , "start": 20.0208, "duration": 0.140625, "velocity": 127 },
{ "note": 76 , "start": 20.1667, "duration": 0.140625, "velocity": 127 },
{ "note": 79 , "start": 20.2344, "duration": 0.0729167, "velocity": 127 },
{ "note": 73 , "start": 20.3073, "duration": 0.140625, "velocity": 127 },
{ "note": 81 , "start": 20.3073, "duration": 0.0729167, "velocity": 127 },
{ "note": 79 , "start": 20.3802, "duration": 0.0677083, "velocity": 127 },
{ "note": 69 , "start": 20.4479, "duration": 0.145833, "velocity": 127 },
{ "note": 81 , "start": 20.4479, "duration": 0.0729167, "velocity": 127 },
{ "note": 79 , "start": 20.5208, "duration": 0.0729167, "velocity": 127 },
{ "note": 73 , "start": 20.5938, "duration": 0.140625, "velocity": 127 },
{ "note": 77 , "start": 20.5938, "duration": 0.0729167, "velocity": 127 },
{ "note": 79 , "start": 20.6667, "duration": 0.0677083, "velocity": 127 },
{ "note": 62 , "start": 20.7396, "duration": 0.28125, "velocity": 127 },
{ "note": 74 , "start": 20.7396, "duration": 0.140625, "velocity": 127 },
{ "note": 77 , "start": 20.7396, "duration": 0.140625, "velocity": 127 },
{ "note": 74 , "start": 20.8802, "duration": 0.140625, "velocity": 127 },
{ "note": 64 , "start": 21.0208, "duration": 0.286458, "velocity": 127 },
{ "note": 79 , "start": 21.0208, "duration": 0.145833, "velocity": 127 },
{ "note": 76 , "start": 21.1667, "duration": 0.140625, "velocity": 127 },
{ "note": 65 , "start": 21.3125, "duration": 0.28125, "velocity": 127 },
{ "note": 81 , "start": 21.3125, "duration": 0.177083, "velocity": 127 },
{ "note": 77 , "start": 21.4531, "duration": 0.140625, "velocity": 127 },
{ "note": 67 , "start": 21.5938, "duration": 0.286458, "velocity": 127 },
{ "note": 76 , "start": 21.5938, "duration": 0.145833, "velocity": 127 },
{ "note": 74 , "start": 21.7396, "duration": 0.140625, "velocity": 127 },
{ "note": 57 , "start": 21.8802, "duration": 0.286458, "velocity": 127 },
{ "note": 69 , "start": 21.8802, "duration": 0.140625, "velocity": 127 },
{ "note": 73 , "start": 21.8802, "duration": 0.140625, "velocity": 127 },
{ "note": 69 , "start": 22.0208, "duration": 0.145833, "velocity": 127 },
{ "note": 59 , "start": 22.1667, "duration": 0.286458, "velocity": 127 },
{ "note": 74 , "start": 22.1667, "duration": 0.140625, "velocity": 127 },
{ "note": 71 , "start": 22.3125, "duration": 0.140625, "velocity": 127 },
{ "note": 61 , "start": 22.4531, "duration": 0.28125, "velocity": 127 },
{ "note": 76 , "start": 22.4531, "duration": 0.177083, "velocity": 127 },
{ "note": 67 , "start": 22.599, "duration": 0.140625, "velocity": 127 },
{ "note": 57 , "start": 22.7396, "duration": 0.286458, "velocity": 127 },
{ "note": 65 , "start": 22.7396, "duration": 0.140625, "velocity": 127 },
{ "note": 64 , "start": 22.8802, "duration": 0.140625, "velocity": 127 },
{ "note": 62 , "start": 23.026, "duration": 0.135417, "velocity": 127 },
{ "note": 50 , "start": 23.026, "duration": 0.28125, "velocity": 127 },
{ "note": 65 , "start": 23.026, "duration": 0.140625, "velocity": 127 },
{ "note": 62 , "start": 23.1667, "duration": 0.140625, "velocity": 127 },
{ "note": 52 , "start": 23.3125, "duration": 0.28125, "velocity": 127 },
{ "note": 67 , "start": 23.3125, "duration": 0.140625, "velocity": 127 },
{ "note": 64 , "start": 23.4531, "duration": 0.140625, "velocity": 127 },
{ "note": 53 , "start": 23.599, "duration": 0.28125, "velocity": 127 },
{ "note": 69 , "start": 23.599, "duration": 0.177083, "velocity": 127 },
{ "note": 65 , "start": 23.7396, "duration": 0.140625, "velocity": 127 },
{ "note": 55 , "start": 23.8802, "duration": 0.286458, "velocity": 127 },
{ "note": 64 , "start": 23.8802, "duration": 0.140625, "velocity": 127 },
{ "note": 62 , "start": 24.026, "duration": 0.140625, "velocity": 127 },
{ "note": 57 , "start": 24.1667, "duration": 0.140625, "velocity": 127 },
{ "note": 61 , "start": 24.1667, "duration": 0.140625, "velocity": 127 },
{ "note": 57 , "start": 24.3125, "duration": 0.140625, "velocity": 127 },
{ "note": 59 , "start": 24.4531, "duration": 0.140625, "velocity": 127 },
{ "note": 62 , "start": 24.4531, "duration": 0.140625, "velocity": 127 },
{ "note": 59 , "start": 24.5938, "duration": 0.145833, "velocity": 127 },
{ "note": 61 , "start": 24.7396, "duration": 0.140625, "velocity": 127 },
{ "note": 64 , "start": 24.7396, "duration": 0.140625, "velocity": 127 },
{ "note": 61 , "start": 24.8802, "duration": 0.140625, "velocity": 127 },
{ "note": 62 , "start": 25.0208, "duration": 0.140625, "velocity": 127 },
{ "note": 65 , "start": 25.0208, "duration": 0.140625, "velocity": 127 },
{ "note": 62 , "start": 25.1667, "duration": 0.140625, "velocity": 127 },
{ "note": 52 , "start": 25.3073, "duration": 0.140625, "velocity": 127 },
{ "note": 67 , "start": 25.3073, "duration": 0.140625, "velocity": 127 },
{ "note": 67 , "start": 25.4479, "duration": 0.145833, "velocity": 127 },
{ "note": 64 , "start": 25.4479, "duration": 0.145833, "velocity": 127 },
{ "note": 65 , "start": 25.5938, "duration": 0.140625, "velocity": 127 },
{ "note": 62 , "start": 25.5938, "duration": 0.140625, "velocity": 127 },
{ "note": 61 , "start": 25.7396, "duration": 0.140625, "velocity": 127 },
{ "note": 64 , "start": 25.7396, "duration": 0.140625, "velocity": 127 },
{ "note": 65 , "start": 25.8802, "duration": 0.28125, "velocity": 127 },
{ "note": 62 , "start": 25.8802, "duration": 0.28125, "velocity": 127 },
{ "note": 58 , "start": 26.1667, "duration": 0.286458, "velocity": 127 },
{ "note": 69 , "start": 26.1667, "duration": 0.0677083, "velocity": 127 },
{ "note": 67 , "start": 26.2396, "duration": 0.0677083, "velocity": 127 },
{ "note": 65 , "start": 26.3073, "duration": 0.0729167, "velocity": 127 },
{ "note": 67 , "start": 26.3802, "duration": 0.0677083, "velocity": 127 },
{ "note": 45 , "start": 26.4531, "duration": 0.854167, "velocity": 127 },
{ "note": 69 , "start": 26.4531, "duration": 0.140625, "velocity": 127 },
{ "note": 64 , "start": 26.5938, "duration": 0.145833, "velocity": 127 },
{ "note": 65 , "start": 26.7396, "duration": 0.140625, "velocity": 127 },
{ "note": 62 , "start": 26.8802, "duration": 0.140625, "velocity": 127 },
{ "note": 64 , "start": 27.026, "duration": 0.140625, "velocity": 127 },
{ "note": 61 , "start": 27.1667, "duration": 0.145833, "velocity": 127 },
{ "note": 62 , "start": 27.3125, "duration": 0.140625, "velocity": 127 },
{ "note": 65 , "start": 27.3125, "duration": 0.28125, "velocity": 127 },
{ "note": 59 , "start": 27.4531, "duration": 0.140625, "velocity": 127 },
{ "note": 64 , "start": 27.599, "duration": 0.286458, "velocity": 127 },
{ "note": 61 , "start": 27.599, "duration": 0.140625, "velocity": 127 },
{ "note": 57 , "start": 27.7396, "duration": 0.145833, "velocity": 127 },
{ "note": 59 , "start": 27.8854, "duration": 0.140625, "velocity": 127 },
{ "note": 62 , "start": 27.8854, "duration": 0.28125, "velocity": 127 },
{ "note": 56 , "start": 28.026, "duration": 0.140625, "velocity": 127 },
{ "note": 57 , "start": 28.1719, "duration": 0.140625, "velocity": 127 },
{ "note": 61 , "start": 28.1719, "duration": 0.572917, "velocity": 127 },
{ "note": 52 , "start": 28.3125, "duration": 0.140625, "velocity": 127 },
{ "note": 49 , "start": 28.4583, "duration": 0.140625, "velocity": 127 },
{ "note": 52 , "start": 28.599, "duration": 0.145833, "velocity": 127 },
{ "note": 47 , "start": 28.7448, "duration": 0.0677083, "velocity": 127 },
{ "note": 45 , "start": 28.8125, "duration": 0.0729167, "velocity": 127 },
{ "note": 47 , "start": 28.8854, "duration": 0.0729167, "velocity": 127 },
{ "note": 45 , "start": 28.9583, "duration": 1.14062, "velocity": 127 },
{ "note": 69 , "start": 29.8854, "duration": 0.140625, "velocity": 127 },
{ "note": 71 , "start": 30.0312, "duration": 0.140625, "velocity": 127 },
{ "note": 73 , "start": 30.1719, "duration": 0.145833, "velocity": 127 },
{ "note": 74 , "start": 30.3177, "duration": 0.140625, "velocity": 127 },
{ "note": 76 , "start": 30.4583, "duration": 0.140625, "velocity": 127 },
{ "note": 73 , "start": 30.6042, "duration": 0.140625, "velocity": 127 },
{ "note": 77 , "start": 30.7448, "duration": 0.145833, "velocity": 127 },
{ "note": 74 , "start": 30.8906, "duration": 0.140625, "velocity": 127 },
{ "note": 57 , "start": 31.0312, "duration": 0.145833, "velocity": 127 },
{ "note": 76 , "start": 31.0312, "duration": 0.859375, "velocity": 127 },
{ "note": 59 , "start": 31.1771, "duration": 0.140625, "velocity": 127 },
{ "note": 61 , "start": 31.3177, "duration": 0.140625, "velocity": 127 },
{ "note": 62 , "start": 31.4635, "duration": 0.140625, "velocity": 127 },
{ "note": 64 , "start": 31.6042, "duration": 0.145833, "velocity": 127 },
{ "note": 61 , "start": 31.75, "duration": 0.140625, "velocity": 127 },
{ "note": 69 , "start": 31.8906, "duration": 0.286458, "velocity": 127 },
{ "note": 65 , "start": 31.8906, "duration": 0.140625, "velocity": 127 },
{ "note": 62 , "start": 32.0365, "duration": 0.140625, "velocity": 127 },
{ "note": 67 , "start": 32.1771, "duration": 0.140625, "velocity": 127 },
{ "note": 71 , "start": 32.1771, "duration": 0.140625, "velocity": 127 },
{ "note": 67 , "start": 32.3177, "duration": 0.145833, "velocity": 127 },
{ "note": 73 , "start": 32.4635, "duration": 0.140625, "velocity": 127 },
{ "note": 69 , "start": 32.4635, "duration": 0.140625, "velocity": 127 },
{ "note": 69 , "start": 32.6042, "duration": 0.145833, "velocity": 127 },
{ "note": 71 , "start": 32.75, "duration": 0.135417, "velocity": 127 },
{ "note": 74 , "start": 32.75, "duration": 0.140625, "velocity": 127 },
{ "note": 71 , "start": 32.8906, "duration": 0.140625, "velocity": 127 },
{ "note": 73 , "start": 33.0365, "duration": 0.135417, "velocity": 127 },
{ "note": 76 , "start": 33.0365, "duration": 0.140625, "velocity": 127 },
{ "note": 73 , "start": 33.1771, "duration": 0.140625, "velocity": 127 },
{ "note": 62 , "start": 33.3177, "duration": 0.286458, "velocity": 127 },
{ "note": 74 , "start": 33.3177, "duration": 0.140625, "velocity": 127 },
{ "note": 78 , "start": 33.3177, "duration": 0.140625, "velocity": 127 },
{ "note": 74 , "start": 33.4583, "duration": 0.145833, "velocity": 127 },
{ "note": 79 , "start": 33.6042, "duration": 0.140625, "velocity": 127 },
{ "note": 64 , "start": 33.6042, "duration": 0.286458, "velocity": 127 },
{ "note": 76 , "start": 33.75, "duration": 0.140625, "velocity": 127 },
{ "note": 66 , "start": 33.8906, "duration": 0.28125, "velocity": 127 },
{ "note": 81 , "start": 33.8906, "duration": 0.177083, "velocity": 127 },
{ "note": 72 , "start": 34.0365, "duration": 0.140625, "velocity": 127 },
{ "note": 70 , "start": 34.1771, "duration": 0.140625, "velocity": 127 },
{ "note": 62 , "start": 34.1771, "duration": 0.286458, "velocity": 127 },
{ "note": 69 , "start": 34.3177, "duration": 0.140625, "velocity": 127 },
{ "note": 55 , "start": 34.4635, "duration": 0.28125, "velocity": 127 },
{ "note": 67 , "start": 34.4635, "duration": 0.135417, "velocity": 127 },
{ "note": 70 , "start": 34.4635, "duration": 0.140625, "velocity": 127 },
{ "note": 67 , "start": 34.6042, "duration": 0.140625, "velocity": 127 },
{ "note": 57 , "start": 34.75, "duration": 0.28125, "velocity": 127 },
{ "note": 72 , "start": 34.75, "duration": 0.140625, "velocity": 127 },
{ "note": 69 , "start": 34.8906, "duration": 0.140625, "velocity": 127 },
{ "note": 58 , "start": 35.0365, "duration": 0.28125, "velocity": 127 },
{ "note": 74 , "start": 35.0365, "duration": 0.177083, "velocity": 127 },
{ "note": 70 , "start": 35.1771, "duration": 0.140625, "velocity": 127 },
{ "note": 69 , "start": 35.3177, "duration": 0.140625, "velocity": 127 },
{ "note": 60 , "start": 35.3177, "duration": 0.286458, "velocity": 127 },
{ "note": 67 , "start": 35.4635, "duration": 0.140625, "velocity": 127 },
{ "note": 50 , "start": 35.6042, "duration": 0.286458, "velocity": 127 },
{ "note": 62 , "start": 35.6042, "duration": 0.140625, "velocity": 127 },
{ "note": 66 , "start": 35.6042, "duration": 0.140625, "velocity": 127 },
{ "note": 62 , "start": 35.75, "duration": 0.140625, "velocity": 127 },
{ "note": 67 , "start": 35.8906, "duration": 0.140625, "velocity": 127 },
{ "note": 52 , "start": 35.8906, "duration": 0.286458, "velocity": 127 },
{ "note": 64 , "start": 36.0365, "duration": 0.140625, "velocity": 127 },
{ "note": 69 , "start": 36.1771, "duration": 0.177083, "velocity": 127 },
{ "note": 54 , "start": 36.1771, "duration": 0.286458, "velocity": 127 },
{ "note": 60 , "start": 36.3177, "duration": 0.140625, "velocity": 127 },
{ "note": 50 , "start": 36.4635, "duration": 0.28125, "velocity": 127 },
{ "note": 58 , "start": 36.4635, "duration": 0.140625, "velocity": 127 },
{ "note": 57 , "start": 36.6042, "duration": 0.145833, "velocity": 127 },
{ "note": 55 , "start": 36.75, "duration": 0.135417, "velocity": 127 },
{ "note": 58 , "start": 36.75, "duration": 0.140625, "velocity": 127 },
{ "note": 55 , "start": 36.8906, "duration": 0.140625, "velocity": 127 },
{ "note": 57 , "start": 37.0365, "duration": 0.135417, "velocity": 127 },
{ "note": 60 , "start": 37.0365, "duration": 0.140625, "velocity": 127 },
{ "note": 57 , "start": 37.1771, "duration": 0.140625, "velocity": 127 },
{ "note": 62 , "start": 37.3177, "duration": 0.140625, "velocity": 127 },
{ "note": 58 , "start": 37.3177, "duration": 0.140625, "velocity": 127 },
{ "note": 58 , "start": 37.4583, "duration": 0.145833, "velocity": 127 },
{ "note": 60 , "start": 37.6042, "duration": 0.140625, "velocity": 127 },
{ "note": 64 , "start": 37.6042, "duration": 0.140625, "velocity": 127 },
{ "note": 60 , "start": 37.7448, "duration": 0.145833, "velocity": 127 },
{ "note": 65 , "start": 37.8906, "duration": 0.140625, "velocity": 127 },
{ "note": 62 , "start": 37.8906, "duration": 0.135417, "velocity": 127 },
{ "note": 62 , "start": 38.0312, "duration": 0.140625, "velocity": 127 },
{ "note": 64 , "start": 38.1771, "duration": 0.135417, "velocity": 127 },
{ "note": 67 , "start": 38.1771, "duration": 0.140625, "velocity": 127 },
{ "note": 64 , "start": 38.3177, "duration": 0.140625, "velocity": 127 },
{ "note": 65 , "start": 38.4583, "duration": 0.140625, "velocity": 127 },
{ "note": 69 , "start": 38.4583, "duration": 0.140625, "velocity": 127 },
{ "note": 65 , "start": 38.6042, "duration": 0.140625, "velocity": 127 },
{ "note": 67 , "start": 38.7448, "duration": 0.140625, "velocity": 127 },
{ "note": 70 , "start": 38.7448, "duration": 0.140625, "velocity": 127 },
{ "note": 67 , "start": 38.8854, "duration": 0.140625, "velocity": 127 },
{ "note": 69 , "start": 39.0312, "duration": 0.140625, "velocity": 127 },
{ "note": 72 , "start": 39.0312, "duration": 0.640625, "velocity": 127 },
{ "note": 65 , "start": 39.1719, "duration": 0.145833, "velocity": 127 },
{ "note": 62 , "start": 39.3177, "duration": 0.140625, "velocity": 127 },
{ "note": 58 , "start": 39.4583, "duration": 0.140625, "velocity": 127 },
{ "note": 67 , "start": 39.6042, "duration": 0.140625, "velocity": 127 },
{ "note": 70 , "start": 39.6771, "duration": 0.0677083, "velocity": 127 },
{ "note": 72 , "start": 39.7448, "duration": 0.0729167, "velocity": 127 },
{ "note": 64 , "start": 39.7448, "duration": 0.145833, "velocity": 127 },
{ "note": 70 , "start": 39.8177, "duration": 0.0677083, "velocity": 127 },
{ "note": 60 , "start": 39.8906, "duration": 0.140625, "velocity": 127 },
{ "note": 72 , "start": 39.8906, "duration": 0.0677083, "velocity": 127 },
{ "note": 70 , "start": 39.9583, "duration": 0.0729167, "velocity": 127 },
{ "note": 72 , "start": 40.0312, "duration": 0.0729167, "velocity": 127 },
{ "note": 64 , "start": 40.0312, "duration": 0.145833, "velocity": 127 },
{ "note": 70 , "start": 40.1042, "duration": 0.0729167, "velocity": 127 },
{ "note": 69 , "start": 40.1771, "duration": 0.140625, "velocity": 127 },
{ "note": 70 , "start": 40.25, "duration": 0.0677083, "velocity": 127 },
{ "note": 72 , "start": 40.3177, "duration": 0.5, "velocity": 127 },
{ "note": 65 , "start": 40.3177, "duration": 0.140625, "velocity": 127 },
{ "note": 62 , "start": 40.4635, "duration": 0.140625, "velocity": 127 },
{ "note": 58 , "start": 40.6042, "duration": 0.145833, "velocity": 127 },
{ "note": 67 , "start": 40.75, "duration": 0.140625, "velocity": 127 },
{ "note": 70 , "start": 40.8177, "duration": 0.0729167, "velocity": 127 },
{ "note": 64 , "start": 40.8906, "duration": 0.140625, "velocity": 127 },
{ "note": 72 , "start": 40.8906, "duration": 0.0729167, "velocity": 127 },
{ "note": 70 , "start": 40.9635, "duration": 0.0677083, "velocity": 127 },
{ "note": 60 , "start": 41.0365, "duration": 0.140625, "velocity": 127 },
{ "note": 72 , "start": 41.0365, "duration": 0.0677083, "velocity": 127 },
{ "note": 70 , "start": 41.1094, "duration": 0.0677083, "velocity": 127 },
{ "note": 69 , "start": 41.1771, "duration": 0.0729167, "velocity": 127 },
{ "note": 64 , "start": 41.1771, "duration": 0.145833, "velocity": 127 },
{ "note": 70 , "start": 41.25, "duration": 0.0677083, "velocity": 127 },
{ "note": 69 , "start": 41.3229, "duration": 0.140625, "velocity": 127 },
{ "note": 72 , "start": 41.3229, "duration": 0.28125, "velocity": 127 },
{ "note": 65 , "start": 41.4635, "duration": 0.140625, "velocity": 127 },
{ "note": 62 , "start": 41.6094, "duration": 0.140625, "velocity": 127 },
{ "note": 77 , "start": 41.6094, "duration": 0.286458, "velocity": 127 },
{ "note": 81 , "start": 41.6094, "duration": 0.286458, "velocity": 127 },
{ "note": 58 , "start": 41.75, "duration": 0.140625, "velocity": 127 },
{ "note": 67 , "start": 41.8958, "duration": 0.140625, "velocity": 127 },
{ "note": 70 , "start": 41.8958, "duration": 0.28125, "velocity": 127 },
{ "note": 64 , "start": 42.0365, "duration": 0.145833, "velocity": 127 },
{ "note": 60 , "start": 42.1823, "duration": 0.140625, "velocity": 127 },
{ "note": 76 , "start": 42.1823, "duration": 0.286458, "velocity": 127 },
{ "note": 79 , "start": 42.1823, "duration": 0.286458, "velocity": 127 },
{ "note": 64 , "start": 42.3229, "duration": 0.140625, "velocity": 127 },
{ "note": 69 , "start": 42.4688, "duration": 0.140625, "velocity": 127 },
{ "note": 65 , "start": 42.4688, "duration": 0.140625, "velocity": 127 },
{ "note": 65 , "start": 42.6094, "duration": 0.140625, "velocity": 127 },
{ "note": 53 , "start": 42.75, "duration": 0.286458, "velocity": 127 },
{ "note": 72 , "start": 42.75, "duration": 0.145833, "velocity": 127 },
{ "note": 69 , "start": 42.8958, "duration": 0.140625, "velocity": 127 },
{ "note": 77 , "start": 43.0417, "duration": 0.140625, "velocity": 127 },
{ "note": 53 , "start": 43.0417, "duration": 0.5625, "velocity": 127 },
{ "note": 72 , "start": 43.1823, "duration": 0.140625, "velocity": 127 },
{ "note": 41 , "start": 43.3229, "duration": 0.286458, "velocity": 127 },
{ "note": 81 , "start": 43.3229, "duration": 0.145833, "velocity": 127 },
{ "note": 77 , "start": 43.4688, "duration": 0.140625, "velocity": 127 },
{ "note": 76 , "start": 43.6094, "duration": 0.145833, "velocity": 127 },
{ "note": 48 , "start": 43.6094, "duration": 0.286458, "velocity": 127 },
{ "note": 79 , "start": 43.7552, "duration": 0.140625, "velocity": 127 },
{ "note": 60 , "start": 43.8958, "duration": 0.286458, "velocity": 127 },
{ "note": 72 , "start": 43.8958, "duration": 0.140625, "velocity": 127 },
{ "note": 76 , "start": 44.0417, "duration": 0.140625, "velocity": 127 },
{ "note": 60 , "start": 44.1823, "duration": 0.286458, "velocity": 127 },
{ "note": 67 , "start": 44.1823, "duration": 0.145833, "velocity": 127 },
{ "note": 72 , "start": 44.3281, "duration": 0.140625, "velocity": 127 },
{ "note": 66 , "start": 44.4688, "duration": 0.286458, "velocity": 127 },
{ "note": 70 , "start": 44.4688, "duration": 0.145833, "velocity": 127 },
{ "note": 69 , "start": 44.6146, "duration": 0.140625, "velocity": 127 },
{ "note": 67 , "start": 44.7552, "duration": 0.140625, "velocity": 127 },
{ "note": 70 , "start": 44.7552, "duration": 0.140625, "velocity": 127 },
{ "note": 67 , "start": 44.8958, "duration": 0.145833, "velocity": 127 },
{ "note": 55 , "start": 45.0417, "duration": 0.286458, "velocity": 127 },
{ "note": 74 , "start": 45.0417, "duration": 0.140625, "velocity": 127 },
{ "note": 70 , "start": 45.1875, "duration": 0.140625, "velocity": 127 },
{ "note": 55 , "start": 45.3281, "duration": 0.567708, "velocity": 127 },
{ "note": 79 , "start": 45.3281, "duration": 0.140625, "velocity": 127 },
{ "note": 74 , "start": 45.474, "duration": 0.140625, "velocity": 127 },
{ "note": 43 , "start": 45.6146, "duration": 0.286458, "velocity": 127 },
{ "note": 82 , "start": 45.6146, "duration": 0.140625, "velocity": 127 },
{ "note": 79 , "start": 45.7552, "duration": 0.140625, "velocity": 127 },
{ "note": 50 , "start": 45.901, "duration": 0.28125, "velocity": 127 },
{ "note": 77 , "start": 45.901, "duration": 0.140625, "velocity": 127 },
{ "note": 81 , "start": 46.0417, "duration": 0.145833, "velocity": 127 },
{ "note": 62 , "start": 46.1875, "duration": 0.28125, "velocity": 127 },
{ "note": 74 , "start": 46.1875, "duration": 0.140625, "velocity": 127 },
{ "note": 77 , "start": 46.3281, "duration": 0.140625, "velocity": 127 },
{ "note": 62 , "start": 46.474, "duration": 0.286458, "velocity": 127 },
{ "note": 69 , "start": 46.474, "duration": 0.140625, "velocity": 127 },
{ "note": 74 , "start": 46.6146, "duration": 0.145833, "velocity": 127 },
{ "note": 68 , "start": 46.7604, "duration": 0.28125, "velocity": 127 },
{ "note": 72 , "start": 46.7604, "duration": 0.140625, "velocity": 127 },
{ "note": 71 , "start": 46.901, "duration": 0.140625, "velocity": 127 },
{ "note": 69 , "start": 47.0469, "duration": 0.140625, "velocity": 127 },
{ "note": 72 , "start": 47.0469, "duration": 0.140625, "velocity": 127 },
{ "note": 69 , "start": 47.1875, "duration": 0.140625, "velocity": 127 },
{ "note": 57 , "start": 47.3281, "duration": 0.286458, "velocity": 127 },
{ "note": 76 , "start": 47.3281, "duration": 0.145833, "velocity": 127 },
{ "note": 72 , "start": 47.474, "duration": 0.140625, "velocity": 127 },
{ "note": 57 , "start": 47.6198, "duration": 0.5625, "velocity": 127 },
{ "note": 81 , "start": 47.6198, "duration": 0.140625, "velocity": 127 },
{ "note": 76 , "start": 47.7604, "duration": 0.140625, "velocity": 127 },
{ "note": 45 , "start": 47.901, "duration": 0.286458, "velocity": 127 },
{ "note": 84 , "start": 47.901, "duration": 0.145833, "velocity": 127 },
{ "note": 81 , "start": 48.0469, "duration": 0.140625, "velocity": 127 },
{ "note": 52 , "start": 48.1875, "duration": 1.14583, "velocity": 127 },
{ "note": 80 , "start": 48.1875, "duration": 0.140625, "velocity": 127 },
{ "note": 83 , "start": 48.3333, "duration": 0.140625, "velocity": 127 },
{ "note": 40 , "start": 48.474, "duration": 0.286458, "velocity": 127 },
{ "note": 76 , "start": 48.474, "duration": 0.145833, "velocity": 127 },
{ "note": 80 , "start": 48.6198, "duration": 0.140625, "velocity": 127 },
{ "note": 40 , "start": 48.7604, "duration": 0.286458, "velocity": 127 },
{ "note": 71 , "start": 48.7604, "duration": 0.140625, "velocity": 127 },
{ "note": 74 , "start": 48.9062, "duration": 0.140625, "velocity": 127 },
{ "note": 40 , "start": 49.0469, "duration": 0.286458, "velocity": 127 },
{ "note": 73 , "start": 49.0469, "duration": 0.145833, "velocity": 127 },
{ "note": 71 , "start": 49.1927, "duration": 0.140625, "velocity": 127 },
{ "note": 45 , "start": 49.3333, "duration": 0.286458, "velocity": 127 },
{ "note": 73 , "start": 49.3333, "duration": 0.286458, "velocity": 127 },
{ "note": 69 , "start": 49.6198, "duration": 0.286458, "velocity": 127 },
{ "note": 81 , "start": 49.6198, "duration": 0.286458, "velocity": 127 },
{ "note": 69 , "start": 49.9062, "duration": 0.286458, "velocity": 127 },
{ "note": 82 , "start": 49.9062, "duration": 0.0677083, "velocity": 127 },
{ "note": 81 , "start": 49.9792, "duration": 0.0677083, "velocity": 127 },
{ "note": 82 , "start": 50.0469, "duration": 0.0729167, "velocity": 127 },
{ "note": 81 , "start": 50.1198, "duration": 0.0729167, "velocity": 127 },
{ "note": 69 , "start": 50.1927, "duration": 0.28125, "velocity": 127 },
{ "note": 82 , "start": 50.1927, "duration": 0.0677083, "velocity": 127 },
{ "note": 81 , "start": 50.2604, "duration": 0.0729167, "velocity": 127 },
{ "note": 82 , "start": 50.3333, "duration": 0.0729167, "velocity": 127 },
{ "note": 81 , "start": 50.4062, "duration": 0.213542, "velocity": 127 },
{ "note": 41 , "start": 50.4792, "duration": 0.286458, "velocity": 127 },
{ "note": 79 , "start": 50.6198, "duration": 0.145833, "velocity": 127 },
{ "note": 69 , "start": 50.7656, "duration": 0.28125, "velocity": 127 },
{ "note": 65 , "start": 50.7656, "duration": 0.28125, "velocity": 127 },
{ "note": 77 , "start": 50.7656, "duration": 0.140625, "velocity": 127 },
{ "note": 76 , "start": 50.9062, "duration": 0.145833, "velocity": 127 },
{ "note": 65 , "start": 51.0521, "duration": 0.286458, "velocity": 127 },
{ "note": 69 , "start": 51.0521, "duration": 0.286458, "velocity": 127 },
{ "note": 74 , "start": 51.0521, "duration": 0.140625, "velocity": 127 },
{ "note": 72 , "start": 51.1927, "duration": 0.140625, "velocity": 127 },
{ "note": 70 , "start": 51.3385, "duration": 0.140625, "velocity": 127 },
{ "note": 65 , "start": 51.3385, "duration": 0.28125, "velocity": 127 },
{ "note": 69 , "start": 51.4792, "duration": 0.145833, "velocity": 127 },
{ "note": 43 , "start": 51.625, "duration": 0.28125, "velocity": 127 },
{ "note": 70 , "start": 51.625, "duration": 0.28125, "velocity": 127 },
{ "note": 70 , "start": 51.9115, "duration": 0.28125, "velocity": 127 },
{ "note": 79 , "start": 51.9115, "duration": 0.28125, "velocity": 127 },
{ "note": 67 , "start": 51.9115, "duration": 0.28125, "velocity": 127 },
{ "note": 70 , "start": 52.1927, "duration": 0.286458, "velocity": 127 },
{ "note": 67 , "start": 52.1927, "duration": 0.286458, "velocity": 127 },
{ "note": 81 , "start": 52.1927, "duration": 0.0729167, "velocity": 127 },
{ "note": 79 , "start": 52.2656, "duration": 0.0677083, "velocity": 127 },
{ "note": 81 , "start": 52.3385, "duration": 0.0677083, "velocity": 127 },
{ "note": 79 , "start": 52.4115, "duration": 0.0677083, "velocity": 127 },
{ "note": 81 , "start": 52.4792, "duration": 0.0729167, "velocity": 127 },
{ "note": 67 , "start": 52.4792, "duration": 0.286458, "velocity": 127 },
{ "note": 70 , "start": 52.4792, "duration": 0.286458, "velocity": 127 },
{ "note": 79 , "start": 52.5521, "duration": 0.0729167, "velocity": 127 },
{ "note": 81 , "start": 52.625, "duration": 0.0677083, "velocity": 127 },
{ "note": 79 , "start": 52.6927, "duration": 0.213542, "velocity": 127 },
{ "note": 40 , "start": 52.7656, "duration": 0.286458, "velocity": 127 },
{ "note": 77 , "start": 52.9115, "duration": 0.140625, "velocity": 127 },
{ "note": 76 , "start": 53.0521, "duration": 0.145833, "velocity": 127 },
{ "note": 67 , "start": 53.0521, "duration": 0.286458, "velocity": 127 },
{ "note": 64 , "start": 53.0521, "duration": 0.286458, "velocity": 127 },
{ "note": 74 , "start": 53.1979, "duration": 0.140625, "velocity": 127 },
{ "note": 67 , "start": 53.3385, "duration": 0.286458, "velocity": 127 },
{ "note": 64 , "start": 53.3385, "duration": 0.286458, "velocity": 127 },
{ "note": 72 , "start": 53.3385, "duration": 0.140625, "velocity": 127 },
{ "note": 70 , "start": 53.4844, "duration": 0.140625, "velocity": 127 },
{ "note": 64 , "start": 53.625, "duration": 0.286458, "velocity": 127 },
{ "note": 69 , "start": 53.625, "duration": 0.140625, "velocity": 127 },
{ "note": 67 , "start": 53.7708, "duration": 0.140625, "velocity": 127 },
{ "note": 41 , "start": 53.9115, "duration": 0.286458, "velocity": 127 },
{ "note": 69 , "start": 53.9115, "duration": 0.286458, "velocity": 127 },
{ "note": 77 , "start": 54.1979, "duration": 0.28125, "velocity": 127 },
{ "note": 69 , "start": 54.1979, "duration": 0.28125, "velocity": 127 },
{ "note": 65 , "start": 54.1979, "duration": 0.28125, "velocity": 127 },
{ "note": 79 , "start": 54.4844, "duration": 0.0677083, "velocity": 127 },
{ "note": 69 , "start": 54.4844, "duration": 0.286458, "velocity": 127 },
{ "note": 65 , "start": 54.4844, "duration": 0.286458, "velocity": 127 },
{ "note": 77 , "start": 54.5573, "duration": 0.0677083, "velocity": 127 },
{ "note": 79 , "start": 54.625, "duration": 0.0729167, "velocity": 127 },
{ "note": 77 , "start": 54.6979, "duration": 0.0677083, "velocity": 127 },
{ "note": 79 , "start": 54.7708, "duration": 0.0677083, "velocity": 127 },
{ "note": 69 , "start": 54.7708, "duration": 0.28125, "velocity": 127 },
{ "note": 65 , "start": 54.7708, "duration": 0.28125, "velocity": 127 },
{ "note": 77 , "start": 54.8438, "duration": 0.0677083, "velocity": 127 },
{ "note": 79 , "start": 54.9115, "duration": 0.0729167, "velocity": 127 },
{ "note": 77 , "start": 54.9844, "duration": 0.213542, "velocity": 127 },
{ "note": 38 , "start": 55.0573, "duration": 0.286458, "velocity": 127 },
{ "note": 76 , "start": 55.1979, "duration": 0.140625, "velocity": 127 },
{ "note": 62 , "start": 55.3438, "duration": 0.286458, "velocity": 127 },
{ "note": 74 , "start": 55.3438, "duration": 0.140625, "velocity": 127 },
{ "note": 65 , "start": 55.3438, "duration": 0.286458, "velocity": 127 },
{ "note": 72 , "start": 55.4844, "duration": 0.145833, "velocity": 127 },
{ "note": 70 , "start": 55.6302, "duration": 0.140625, "velocity": 127 },
{ "note": 62 , "start": 55.6302, "duration": 0.28125, "velocity": 127 },
{ "note": 65 , "start": 55.6302, "duration": 0.28125, "velocity": 127 },
{ "note": 69 , "start": 55.7708, "duration": 0.140625, "velocity": 127 },
{ "note": 67 , "start": 55.9167, "duration": 0.140625, "velocity": 127 },
{ "note": 62 , "start": 55.9167, "duration": 0.286458, "velocity": 127 },
{ "note": 65 , "start": 56.0573, "duration": 0.145833, "velocity": 127 },
{ "note": 40 , "start": 56.2031, "duration": 0.28125, "velocity": 127 },
{ "note": 67 , "start": 56.2031, "duration": 0.28125, "velocity": 127 },
{ "note": 76 , "start": 56.4896, "duration": 0.28125, "velocity": 127 },
{ "note": 64 , "start": 56.4896, "duration": 0.28125, "velocity": 127 },
{ "note": 67 , "start": 56.4896, "duration": 0.28125, "velocity": 127 },
{ "note": 67 , "start": 56.7708, "duration": 0.286458, "velocity": 127 },
{ "note": 64 , "start": 56.7708, "duration": 0.286458, "velocity": 127 },
{ "note": 77 , "start": 56.7708, "duration": 0.0729167, "velocity": 127 },
{ "note": 76 , "start": 56.8438, "duration": 0.0729167, "velocity": 127 },
{ "note": 77 , "start": 56.9167, "duration": 0.0677083, "velocity": 127 },
{ "note": 76 , "start": 56.9896, "duration": 0.0677083, "velocity": 127 },
{ "note": 67 , "start": 57.0573, "duration": 0.286458, "velocity": 127 },
{ "note": 64 , "start": 57.0573, "duration": 0.286458, "velocity": 127 },
{ "note": 77 , "start": 57.0573, "duration": 0.0729167, "velocity": 127 },
{ "note": 76 , "start": 57.1302, "duration": 0.0677083, "velocity": 127 },
{ "note": 77 , "start": 57.2031, "duration": 0.0677083, "velocity": 127 },
{ "note": 76 , "start": 57.2708, "duration": 0.213542, "velocity": 127 },
{ "note": 45 , "start": 57.3438, "duration": 0.286458, "velocity": 127 },
{ "note": 74 , "start": 57.4896, "duration": 0.140625, "velocity": 127 },
{ "note": 57 , "start": 57.6302, "duration": 0.286458, "velocity": 127 },
{ "note": 64 , "start": 57.6302, "duration": 0.286458, "velocity": 127 },
{ "note": 73 , "start": 57.6302, "duration": 0.140625, "velocity": 127 },
{ "note": 71 , "start": 57.776, "duration": 0.140625, "velocity": 127 },
{ "note": 64 , "start": 57.9167, "duration": 0.286458, "velocity": 127 },
{ "note": 57 , "start": 57.9167, "duration": 0.286458, "velocity": 127 },
{ "note": 69 , "start": 57.9167, "duration": 0.145833, "velocity": 127 },
{ "note": 67 , "start": 58.0625, "duration": 0.140625, "velocity": 127 },
{ "note": 65 , "start": 58.2031, "duration": 0.140625, "velocity": 127 },
{ "note": 57 , "start": 58.2031, "duration": 0.286458, "velocity": 127 },
{ "note": 64 , "start": 58.349, "duration": 0.140625, "velocity": 127 },
{ "note": 74 , "start": 58.4896, "duration": 1.14062, "velocity": 127 },
{ "note": 65 , "start": 58.4896, "duration": 0.140625, "velocity": 127 },
{ "note": 62 , "start": 58.4896, "duration": 0.140625, "velocity": 127 },
{ "note": 62 , "start": 58.6302, "duration": 0.145833, "velocity": 127 },
{ "note": 64 , "start": 58.776, "duration": 0.140625, "velocity": 127 },
{ "note": 67 , "start": 58.776, "duration": 0.140625, "velocity": 127 },
{ "note": 64 , "start": 58.9167, "duration": 0.145833, "velocity": 127 },
{ "note": 65 , "start": 59.0625, "duration": 0.135417, "velocity": 127 },
{ "note": 69 , "start": 59.0625, "duration": 0.140625, "velocity": 127 },
{ "note": 65 , "start": 59.2031, "duration": 0.140625, "velocity": 127 },
{ "note": 67 , "start": 59.349, "duration": 0.135417, "velocity": 127 },
{ "note": 70 , "start": 59.349, "duration": 0.140625, "velocity": 127 },
{ "note": 67 , "start": 59.4896, "duration": 0.140625, "velocity": 127 },
{ "note": 74 , "start": 59.6302, "duration": 1.14062, "velocity": 127 },
{ "note": 65 , "start": 59.6302, "duration": 0.140625, "velocity": 127 },
{ "note": 62 , "start": 59.6302, "duration": 0.140625, "velocity": 127 },
{ "note": 62 , "start": 59.7708, "duration": 0.145833, "velocity": 127 },
{ "note": 64 , "start": 59.9167, "duration": 0.140625, "velocity": 127 },
{ "note": 67 , "start": 59.9167, "duration": 0.140625, "velocity": 127 },
{ "note": 64 , "start": 60.0573, "duration": 0.145833, "velocity": 127 },
{ "note": 65 , "start": 60.2031, "duration": 0.135417, "velocity": 127 },
{ "note": 69 , "start": 60.2031, "duration": 0.140625, "velocity": 127 },
{ "note": 65 , "start": 60.3438, "duration": 0.140625, "velocity": 127 },
{ "note": 67 , "start": 60.4896, "duration": 0.135417, "velocity": 127 },
{ "note": 70 , "start": 60.4896, "duration": 0.140625, "velocity": 127 },
{ "note": 67 , "start": 60.6302, "duration": 0.140625, "velocity": 127 },
{ "note": 65 , "start": 60.7708, "duration": 0.140625, "velocity": 127 },
{ "note": 74 , "start": 60.7708, "duration": 1.14062, "velocity": 127 },
{ "note": 62 , "start": 60.7708, "duration": 0.140625, "velocity": 127 },
{ "note": 62 , "start": 60.9167, "duration": 0.140625, "velocity": 127 },
{ "note": 64 , "start": 61.0573, "duration": 0.140625, "velocity": 127 },
{ "note": 67 , "start": 61.0573, "duration": 0.140625, "velocity": 127 },
{ "note": 64 , "start": 61.1979, "duration": 0.140625, "velocity": 127 },
{ "note": 65 , "start": 61.3438, "duration": 0.140625, "velocity": 127 },
{ "note": 69 , "start": 61.3438, "duration": 0.140625, "velocity": 127 },
{ "note": 65 , "start": 61.4844, "duration": 0.140625, "velocity": 127 },
{ "note": 67 , "start": 61.625, "duration": 0.140625, "velocity": 127 },
{ "note": 70 , "start": 61.625, "duration": 0.140625, "velocity": 127 },
{ "note": 67 , "start": 61.7708, "duration": 0.140625, "velocity": 127 },
{ "note": 69 , "start": 61.9115, "duration": 0.286458, "velocity": 127 },
{ "note": 65 , "start": 61.9115, "duration": 0.145833, "velocity": 127 },
{ "note": 62 , "start": 62.0573, "duration": 0.140625, "velocity": 127 },
{ "note": 58 , "start": 62.1979, "duration": 0.140625, "velocity": 127 },
{ "note": 74 , "start": 62.1979, "duration": 0.286458, "velocity": 127 },
{ "note": 77 , "start": 62.1979, "duration": 0.572917, "velocity": 127 },
{ "note": 55 , "start": 62.3438, "duration": 0.140625, "velocity": 127 },
{ "note": 67 , "start": 62.4844, "duration": 0.286458, "velocity": 127 },
{ "note": 64 , "start": 62.4844, "duration": 0.145833, "velocity": 127 },
{ "note": 61 , "start": 62.6302, "duration": 0.140625, "velocity": 127 },
{ "note": 57 , "start": 62.7708, "duration": 0.140625, "velocity": 127 },
{ "note": 73 , "start": 62.7708, "duration": 0.286458, "velocity": 127 },
{ "note": 76 , "start": 62.7708, "duration": 0.432292, "velocity": 127 },
{ "note": 61 , "start": 62.9167, "duration": 0.140625, "velocity": 127 },
{ "note": 65 , "start": 63.0573, "duration": 0.145833, "velocity": 127 },
{ "note": 69 , "start": 63.0573, "duration": 0.286458, "velocity": 127 },
{ "note": 62 , "start": 63.2031, "duration": 0.140625, "velocity": 127 },
{ "note": 58 , "start": 63.3438, "duration": 0.145833, "velocity": 127 },
{ "note": 77 , "start": 63.3438, "duration": 0.572917, "velocity": 127 },
{ "note": 74 , "start": 63.3438, "duration": 0.286458, "velocity": 127 },
{ "note": 55 , "start": 63.4896, "duration": 0.140625, "velocity": 127 },
{ "note": 67 , "start": 63.6302, "duration": 0.286458, "velocity": 127 },
{ "note": 64 , "start": 63.6302, "duration": 0.140625, "velocity": 127 },
{ "note": 61 , "start": 63.776, "duration": 0.140625, "velocity": 127 },
{ "note": 57 , "start": 63.9167, "duration": 0.145833, "velocity": 127 },
{ "note": 73 , "start": 63.9167, "duration": 0.286458, "velocity": 127 },
{ "note": 76 , "start": 63.9167, "duration": 0.432292, "velocity": 127 },
{ "note": 61 , "start": 64.0625, "duration": 0.140625, "velocity": 127 },
{ "note": 65 , "start": 64.2031, "duration": 0.140625, "velocity": 127 },
{ "note": 69 , "start": 64.2031, "duration": 0.286458, "velocity": 127 },
{ "note": 62 , "start": 64.349, "duration": 0.140625, "velocity": 127 },
{ "note": 58 , "start": 64.4896, "duration": 0.145833, "velocity": 127 },
{ "note": 77 , "start": 64.4896, "duration": 0.432292, "velocity": 127 },
{ "note": 74 , "start": 64.4896, "duration": 0.286458, "velocity": 127 },
{ "note": 55 , "start": 64.6354, "duration": 0.140625, "velocity": 127 },
{ "note": 64 , "start": 64.776, "duration": 0.140625, "velocity": 127 },
{ "note": 67 , "start": 64.776, "duration": 0.286458, "velocity": 127 },
{ "note": 61 , "start": 64.9219, "duration": 0.140625, "velocity": 127 },
{ "note": 76 , "start": 65.0625, "duration": 0.286458, "velocity": 127 },
{ "note": 73 , "start": 65.0625, "duration": 0.286458, "velocity": 127 },
{ "note": 57 , "start": 65.0625, "duration": 0.140625, "velocity": 127 },
{ "note": 61 , "start": 65.2083, "duration": 0.140625, "velocity": 127 },
{ "note": 50 , "start": 65.349, "duration": 0.286458, "velocity": 127 },
{ "note": 74 , "start": 65.349, "duration": 0.28125, "velocity": 127 },
{ "note": 65 , "start": 65.349, "duration": 0.140625, "velocity": 127 },
{ "note": 62 , "start": 65.349, "duration": 0.140625, "velocity": 127 },
{ "note": 62 , "start": 65.4948, "duration": 0.140625, "velocity": 127 },
{ "note": 67 , "start": 65.6354, "duration": 0.140625, "velocity": 127 },
{ "note": 52 , "start": 65.6354, "duration": 0.28125, "velocity": 127 },
{ "note": 64 , "start": 65.776, "duration": 0.140625, "velocity": 127 },
{ "note": 53 , "start": 65.9219, "duration": 0.286458, "velocity": 127 },
{ "note": 69 , "start": 65.9219, "duration": 0.140625, "velocity": 127 },
{ "note": 65 , "start": 66.0625, "duration": 0.140625, "velocity": 127 },
{ "note": 55 , "start": 66.2083, "duration": 0.28125, "velocity": 127 },
{ "note": 71 , "start": 66.2083, "duration": 0.140625, "velocity": 127 },
{ "note": 67 , "start": 66.349, "duration": 0.145833, "velocity": 127 },
{ "note": 57 , "start": 66.4948, "duration": 0.286458, "velocity": 127 },
{ "note": 73 , "start": 66.4948, "duration": 0.140625, "velocity": 127 },
{ "note": 69 , "start": 66.6354, "duration": 0.140625, "velocity": 127 },
{ "note": 55 , "start": 66.7812, "duration": 0.286458, "velocity": 127 },
{ "note": 74 , "start": 66.7812, "duration": 0.140625, "velocity": 127 },
{ "note": 76 , "start": 66.9219, "duration": 0.145833, "velocity": 127 },
{ "note": 57 , "start": 67.0677, "duration": 0.5625, "velocity": 127 },
{ "note": 77 , "start": 67.0677, "duration": 0.140625, "velocity": 127 },
{ "note": 74 , "start": 67.2083, "duration": 0.140625, "velocity": 127 },
{ "note": 45 , "start": 67.3542, "duration": 0.28125, "velocity": 127 },
{ "note": 76 , "start": 67.3542, "duration": 0.140625, "velocity": 127 },
{ "note": 73 , "start": 67.4948, "duration": 0.140625, "velocity": 127 },
{ "note": 74 , "start": 67.6354, "duration": 0.145833, "velocity": 127 },
{ "note": 50 , "start": 67.6354, "duration": 0.859375, "velocity": 127 },
{ "note": 69 , "start": 67.7812, "duration": 0.140625, "velocity": 127 },
{ "note": 70 , "start": 67.9271, "duration": 0.140625, "velocity": 127 },
{ "note": 67 , "start": 68.0677, "duration": 0.140625, "velocity": 127 },
{ "note": 69 , "start": 68.2083, "duration": 0.145833, "velocity": 127 },
{ "note": 65 , "start": 68.3542, "duration": 0.140625, "velocity": 127 },
{ "note": 67 , "start": 68.5, "duration": 0.140625, "velocity": 127 },
{ "note": 70 , "start": 68.5, "duration": 0.28125, "velocity": 127 },
{ "note": 64 , "start": 68.6406, "duration": 0.140625, "velocity": 127 },
{ "note": 65 , "start": 68.7865, "duration": 0.140625, "velocity": 127 },
{ "note": 69 , "start": 68.7865, "duration": 0.28125, "velocity": 127 },
{ "note": 62 , "start": 68.9271, "duration": 0.140625, "velocity": 127 },
{ "note": 67 , "start": 69.0677, "duration": 0.286458, "velocity": 127 },
{ "note": 64 , "start": 69.0677, "duration": 0.145833, "velocity": 127 },
{ "note": 61 , "start": 69.2135, "duration": 0.140625, "velocity": 127 },
{ "note": 62 , "start": 69.3594, "duration": 0.140625, "velocity": 127 },
{ "note": 65 , "start": 69.3594, "duration": 0.427083, "velocity": 127 },
{ "note": 57 , "start": 69.5, "duration": 0.140625, "velocity": 127 },
{ "note": 53 , "start": 69.6406, "duration": 0.145833, "velocity": 127 },
{ "note": 57 , "start": 69.7865, "duration": 0.140625, "velocity": 127 },
{ "note": 52 , "start": 69.9323, "duration": 0.0677083, "velocity": 127 },
{ "note": 50 , "start": 70, "duration": 0.0729167, "velocity": 127 },
{ "note": 52 , "start": 70.0729, "duration": 0.0677083, "velocity": 127 },
{ "note": 50 , "start": 70.1458, "duration": 2.22917, "velocity": 127 }
]
